<svg width="84" height="67" viewBox="0 0 84 67" fill="none" xmlns="http://www.w3.org/2000/svg">
<path d="M24.15 11.5156C24.15 15.5592 20.8556 18.8438 16.8 18.8438C12.7444 18.8438 9.45 15.5592 9.45 11.5156C9.45 7.47207 12.7444 4.1875 16.8 4.1875C20.8556 4.1875 24.15 7.47207 24.15 11.5156ZM8.4 32.1521C7.0875 33.6178 6.3 35.5676 6.3 37.6875C6.3 39.8074 7.0875 41.7572 8.4 43.2229V32.1521ZM27.3525 25.7008C23.4544 29.1424 21 34.1805 21 39.7812C21 44.2697 22.575 48.3918 25.2 51.624V54.4375C25.2 56.7537 23.3231 58.625 21 58.625H12.6C10.2769 58.625 8.4 56.7537 8.4 54.4375V50.9305C3.43875 48.575 0 43.5369 0 37.6875C0 29.5873 6.57562 23.0312 14.7 23.0312H18.9C22.05 23.0312 24.9637 24.0127 27.3525 25.6877V25.7008ZM58.8 54.4375V51.624C61.425 48.3918 63 44.2697 63 39.7812C63 34.1805 60.5456 29.1424 56.6475 25.6877C59.0362 24.0127 61.95 23.0312 65.1 23.0312H69.3C77.4244 23.0312 84 29.5873 84 37.6875C84 43.5369 80.5612 48.575 75.6 50.9305V54.4375C75.6 56.7537 73.7231 58.625 71.4 58.625H63C60.6769 58.625 58.8 56.7537 58.8 54.4375ZM74.55 11.5156C74.55 15.5592 71.2556 18.8438 67.2 18.8438C63.1444 18.8438 59.85 15.5592 59.85 11.5156C59.85 7.47207 63.1444 4.1875 67.2 4.1875C71.2556 4.1875 74.55 7.47207 74.55 11.5156ZM75.6 32.1521V43.2359C76.9125 41.7572 77.7 39.8205 77.7 37.7006C77.7 35.5807 76.9125 33.6309 75.6 32.1652V32.1521ZM42 20.9375C37.3669 20.9375 33.6 17.1818 33.6 12.5625C33.6 7.94316 37.3669 4.1875 42 4.1875C46.6331 4.1875 50.4 7.94316 50.4 12.5625C50.4 17.1818 46.6331 20.9375 42 20.9375ZM31.5 39.7812C31.5 41.9012 32.2875 43.8379 33.6 45.3166V34.2459C32.2875 35.7246 31.5 37.6613 31.5 39.7812ZM50.4 34.2459V45.3297C51.7125 43.851 52.5 41.9143 52.5 39.7943C52.5 37.6744 51.7125 35.7246 50.4 34.259V34.2459ZM58.8 39.7812C58.8 45.6307 55.3612 50.6688 50.4 53.0242V58.625C50.4 60.9412 48.5231 62.8125 46.2 62.8125H37.8C35.4769 62.8125 33.6 60.9412 33.6 58.625V53.0242C28.6387 50.6688 25.2 45.6307 25.2 39.7812C25.2 31.6811 31.7756 25.125 39.9 25.125H44.1C52.2244 25.125 58.8 31.6811 58.8 39.7812Z" fill="#358C84"/>
</svg>
