<svg width="43" height="30" viewBox="0 0 43 30" fill="none" xmlns="http://www.w3.org/2000/svg">
    <path d="M9.675 29.875C4.33359 29.875 0 25.5918 0 20.3125C0 16.1422 2.70094 12.5961 6.46344 11.2879C6.45672 11.1086 6.45 10.9293 6.45 10.75C6.45 4.87969 11.2606 0.125 17.2 0.125C21.1842 0.125 24.6578 2.26328 26.5189 5.45078C27.5402 4.77344 28.7764 4.375 30.1 4.375C33.6609 4.375 36.55 7.23047 36.55 10.75C36.55 11.5602 36.3955 12.3305 36.12 13.0477C40.0438 13.8313 43 17.2645 43 21.375C43 26.0699 39.1502 29.875 34.4 29.875H9.675ZM14.9828 15.4648C14.3513 16.0891 14.3513 17.0984 14.9828 17.716C15.6144 18.3336 16.6356 18.3402 17.2605 17.716L19.8808 15.1262V24.0312C19.8808 24.9145 20.5997 25.625 21.4933 25.625C22.3869 25.625 23.1058 24.9145 23.1058 24.0312V15.1262L25.7261 17.716C26.3577 18.3402 27.3789 18.3402 28.0037 17.716C28.6286 17.0918 28.6353 16.0824 28.0037 15.4648L22.6287 10.1523C21.9972 9.52812 20.9759 9.52812 20.3511 10.1523L14.9761 15.4648H14.9828Z" fill="#358C84"/>
</svg>