<svg width="81" height="72" viewBox="0 0 81 72" fill="none" xmlns="http://www.w3.org/2000/svg">
<path d="M56.25 13.5V13.5984C55.5047 13.5422 54.7594 13.5 54 13.5H36C33.6797 13.5 31.4297 13.7953 29.2781 14.3438C29.2641 14.0625 29.25 13.7812 29.25 13.5C29.25 6.04688 35.2969 0 42.75 0C50.2031 0 56.25 6.04688 56.25 13.5ZM54 18C54.4922 18 54.9844 18.0141 55.4625 18.0422C56.0531 18.0844 56.6437 18.1406 57.2344 18.225C59.7094 15.3422 63.3937 13.5 67.5 13.5H72L69.3563 24.0609C71.5781 26.1422 73.3922 28.6734 74.6297 31.5H76.5C78.9891 31.5 81 33.5109 81 36V49.5C81 51.9891 78.9891 54 76.5 54H72C70.7203 55.7016 69.2016 57.2203 67.5 58.5V67.5C67.5 69.9891 65.4891 72 63 72H58.5C56.0109 72 54 69.9891 54 67.5V63H36V67.5C36 69.9891 33.9891 72 31.5 72H27C24.5109 72 22.5 69.9891 22.5 67.5V58.5C17.5922 54.8156 14.2453 49.1766 13.6125 42.75H9.5625C4.275 42.75 0 38.475 0 33.1875C0 27.9 4.275 23.625 9.5625 23.625H10.125C11.9953 23.625 13.5 25.1297 13.5 27C13.5 28.8703 11.9953 30.375 10.125 30.375H9.5625C8.01562 30.375 6.75 31.6406 6.75 33.1875C6.75 34.7344 8.01562 36 9.5625 36H13.95C15.6516 27.5906 22.0641 20.8828 30.3047 18.7312C32.1188 18.2531 34.0312 18 36 18H54ZM63 37.125C63 35.2547 61.4953 33.75 59.625 33.75C57.7547 33.75 56.25 35.2547 56.25 37.125C56.25 38.9953 57.7547 40.5 59.625 40.5C61.4953 40.5 63 38.9953 63 37.125Z" fill="#358C84"/>
</svg>
