<svg width="69" height="39" viewBox="0 0 69 39" fill="none" xmlns="http://www.w3.org/2000/svg">
<path d="M46 8.0625C43.8796 8.0625 42.1666 6.35879 42.1666 4.25C42.1666 2.14121 43.8796 0.4375 46 0.4375H65.1666C67.2869 0.4375 69 2.14121 69 4.25V23.3125C69 25.4213 67.2869 27.125 65.1666 27.125C63.0463 27.125 61.3333 25.4213 61.3333 23.3125V13.4596L41.0406 33.6301C39.5432 35.1193 37.1114 35.1193 35.614 33.6301L23 21.0846L6.54058 37.4426C5.04318 38.9318 2.61141 38.9318 1.11401 37.4426C-0.383382 35.9533 -0.383382 33.5348 1.11401 32.0455L20.2807 12.983C21.7781 11.4937 24.2098 11.4937 25.7072 12.983L38.3333 25.5404L55.9067 8.0625H46Z" fill="#358C84"/>
</svg>
